<?xml version="1.0" encoding="UTF-8"?>
<svg id="_喇뒨쏛_2" data-name="喇뒨쏛 2" xmlns="http://www.w3.org/2000/svg" viewBox="0 0 113.35 134.69">
  <defs>
    <style>
      .cls-1 {
        fill: #231815;
      }
    </style>
  </defs>
  <g id="_喇뒨쏛_1-2" data-name="喇뒨쏛 1">
    <g>
      <path class="cls-1" d="M19.5,73.62l10.79,24.88,10.79-24.88v61.07h-5.31v-33.46l-4.95,17.54h-1.07l-4.95-17.54v33.46h-5.31v-61.07Z"/>
      <path class="cls-1" d="M41.02,134.69l9.47-61.38,9.47,61.38h-5.49l-1.16-12.72h-5.61l-1.19,12.72h-5.49ZM48.51,115.62h3.97l-1.99-14.96-1.98,14.96Z"/>
      <path class="cls-1" d="M59.82,134.69v-61.07h8.1c2.57,0,4.55,1.58,5.97,4.74,1.42,3.16,2.14,7.3,2.14,12.42,0,3.3-.31,6.07-.93,8.29-.62,2.22-1.69,4.2-3.22,5.92.8.79,1.51,3.42,2.15,7.9.43,3.01.84,6.04,1.23,9.08.35,2.78.97,7.02,1.83,12.72h-5.82l-1.84-14.96c-.39-3.42-.81-6.07-1.26-7.94-.45-1.9-1.22-2.85-2.31-2.85h-.37v25.75h-5.66ZM65.48,98.32h1.67c2.09,0,3.13-2.38,3.13-7.15s-1.04-6.93-3.13-6.93h-1.67v14.08Z"/>
      <path class="cls-1" d="M75.07,73.62h6.09l3.58,18.38,3.1-18.38h6l-6.27,33.17v27.9h-5.66v-27.9l-6.84-33.17Z"/>
    </g>
    <g>
      <path class="cls-1" d="M41.84.97h17.06v7.65h-5.7v53.42h-5.66V8.62h-5.7V.97Z"/>
      <path class="cls-1" d="M60.67.97h5.66v25.01h6.31V.97h5.66v61.07h-5.66v-25.45h-6.31v25.45h-5.66V.97Z"/>
      <path class="cls-1" d="M80.25,62.04V.97h14.5v10.62h-8.83v14.08h8.21v10.62h-8.21v15.14h9.19v10.62h-14.85Z"/>
      <path class="cls-1" d="M96.07,62.04V.97h8.1c2.57,0,4.55,1.58,5.97,4.74,1.42,3.16,2.14,7.3,2.14,12.42,0,3.3-.31,6.07-.93,8.29-.62,2.22-1.69,4.2-3.22,5.92.8.79,1.51,3.42,2.15,7.9.43,3.01.84,6.04,1.23,9.08.35,2.78.97,7.02,1.83,12.72h-5.82l-1.84-14.96c-.39-3.42-.81-6.07-1.26-7.94-.45-1.9-1.22-2.85-2.31-2.85h-.37v25.75h-5.66ZM101.74,25.67h1.67c2.09,0,3.13-2.38,3.13-7.15s-1.04-6.93-3.13-6.93h-1.67v14.08Z"/>
      <path class="cls-1" d="M0,.97l10.79,24.88L21.59.97v61.07h-5.31V28.57l-4.95,17.54h-1.07l-4.95-17.54v33.46H0V.97Z"/>
      <path class="cls-1" d="M40.75,55.05c.02,4.46-4.07,7.96-8.74,7.95-4.76,0-8.74-3.51-8.76-7.97l-.22-47.01C23.01,3.6,26.93.07,31.64,0c4.69-.07,8.85,3.37,8.87,7.82l.23,47.23ZM35.06,54.4l-.22-45.88c0-1.55-1.44-2.75-3.05-2.75-1.63,0-3.07,1.21-3.06,2.77l.22,45.98c0,1.57,1.53,2.75,3.14,2.7,1.61-.05,2.98-1.25,2.97-2.83Z"/>
    </g>
  </g>
</svg>