<?xml version="1.0" encoding="UTF-8"?>
<svg id="_圖層_2" data-name="圖層 2" xmlns="http://www.w3.org/2000/svg" viewBox="0 0 601.32 288.32">
  <defs>
    <style>
      .cls-1 {
        fill: #fff;
      }
    </style>
  </defs>
  <g id="_圖層_1-2" data-name="圖層 1">
    <g>
      <path class="cls-1" d="M72.14,3.22v281.88h-16.24V125.56l-19.34,106.32-21.57-103.51v156.72H0V3.22l36.54,156.69L72.14,3.22Z"/>
      <path class="cls-1" d="M443.37,3.22v281.88h-16.24V125.56l-19.34,106.32-21.57-103.51v156.72h-14.99V3.22l36.54,156.69L443.37,3.22Z"/>
      <path class="cls-1" d="M83.09,18.52C87.46,6.18,93.77,0,102,0s14.54,6.18,18.91,18.52c4.37,12.35,6.56,29.8,6.56,52.35v146.58c0,22.55-2.19,40-6.56,52.35-4.37,12.35-10.68,18.52-18.91,18.52s-14.54-6.17-18.91-18.52c-4.37-12.35-6.55-29.8-6.55-52.35V70.87c0-22.55,2.18-40,6.55-52.35ZM102,248.05c5.79,0,8.69-9.26,8.69-27.78V68.05c0-18.52-2.9-27.78-8.69-27.78s-8.69,9.26-8.69,27.78v152.22c0,18.52,2.9,27.78,8.69,27.78Z"/>
      <path class="cls-1" d="M180.78,3.22v40.27h-17.59v241.61h-16.83V43.49h-17.59V3.22h52.01Z"/>
      <path class="cls-1" d="M184.64,285.1V3.22h16.63v120.81h18.89V3.22h16.93v281.88h-16.93v-120.81h-18.89v120.81h-16.63Z"/>
      <path class="cls-1" d="M282.91,122.01v40.27h-23.36v82.55h29.39v40.27h-46.41V3.22h46.41v40.27h-29.39v78.52h23.36Z"/>
      <path class="cls-1" d="M324.88,272.21c-.19-4.02-.29-11.27-.29-21.74v-44.3c0-12.89-.8-22.08-2.38-27.58-1.59-5.5-4.16-8.25-7.72-8.25h-5.33v114.76h-15.44V3.22h23.3c7.96,0,13.76,5.3,17.41,15.91,3.65,10.61,5.48,26.92,5.48,48.93v22.15c0,28.99-3.37,48.06-10.11,57.18,3.65,4.3,6.27,11.48,7.86,21.55,1.59,10.06,2.38,22.89,2.38,38.45v43.49c0,8.05.09,14.57.28,19.53.19,4.97.65,9.86,1.4,14.7h-15.72c-.56-4.56-.94-8.86-1.12-12.89ZM309.16,130.06h6.04c3.09,0,5.4-2.27,6.95-6.84,1.54-4.56,2.31-12.21,2.31-22.95v-27.79c0-10.2-.63-17.58-1.9-22.15-1.26-4.56-3.25-6.84-5.96-6.84h-7.44v86.57Z"/>
      <path class="cls-1" d="M536.07,272.21c-.19-4.02-.29-11.27-.29-21.74v-44.3c0-12.89-.8-22.08-2.38-27.58-1.59-5.5-4.16-8.25-7.72-8.25h-5.33v114.76h-15.44V3.22h23.3c7.96,0,13.76,5.3,17.41,15.91,3.65,10.61,5.48,26.92,5.48,48.93v22.15c0,28.99-3.37,48.06-10.11,57.18,3.65,4.3,6.27,11.48,7.86,21.55,1.59,10.06,2.38,22.89,2.38,38.45v43.49c0,8.05.09,14.57.28,19.53.19,4.97.65,9.86,1.4,14.7h-15.72c-.56-4.56-.94-8.86-1.12-12.89ZM520.34,130.06h6.04c3.09,0,5.4-2.27,6.95-6.84,1.54-4.56,2.31-12.21,2.31-22.95v-27.79c0-10.2-.63-17.58-1.9-22.15-1.26-4.56-3.25-6.84-5.96-6.84h-7.44v86.57Z"/>
      <path class="cls-1" d="M486.09,285.1l-2.96-51.14h-21.05l-2.96,51.14h-15.75L472.53,3.22l30.87,281.88h-17.31ZM480.79,195.7l-8.26-71.59-8.26,71.59h16.53Z"/>
      <path class="cls-1" d="M546.28,3.22h16.31l11.92,103.13,11.91-103.13h14.89l-19.72,140.94v140.94h-15.61v-140.94L546.28,3.22Z"/>
    </g>
  </g>
</svg>